<?xml version="1.0" standalone="no"?>
<!DOCTYPE svg PUBLIC "-//W3C//DTD SVG 20010904//EN"
 "http://www.w3.org/TR/2001/REC-SVG-20010904/DTD/svg10.dtd">
<svg version="1.0" xmlns="http://www.w3.org/2000/svg"
 width="2068.000000pt" height="2009.000000pt" viewBox="0 0 2068.000000 2009.000000"
 preserveAspectRatio="xMidYMid meet">

<g transform="translate(0.000000,2009.000000) scale(0.100000,-0.100000)"
fill="#000000" stroke="none">
<path d="M9885 20081 c-151 -9 -233 -20 -240 -30 -2 -5 10 -1689 27 -3744 l32
-3736 -58 -273 c-32 -150 -61 -277 -65 -283 -3 -5 -25 1756 -48 3913 -23 2158
-43 3925 -45 3927 -4 5 -665 -97 -1008 -155 -380 -64 -570 -105 -760 -164
-542 -169 -809 -328 -1384 -822 -565 -485 -913 -943 -1225 -1610 -229 -490
-379 -949 -475 -1454 -61 -318 -78 -459 -116 -960 -11 -140 -35 -372 -55 -515
-19 -143 -60 -451 -91 -685 -56 -433 -194 -1397 -219 -1527 -37 -195 -143
-372 -493 -828 -347 -450 -466 -618 -901 -1270 -962 -1438 -1124 -1718 -1516
-2605 -173 -391 -514 -1192 -603 -1415 -140 -351 -353 -896 -394 -1010 -53
-148 -156 -509 -209 -731 l-43 -181 64 -104 c102 -168 199 -297 439 -587 124
-151 266 -324 315 -385 82 -103 821 -855 830 -846 3 2 23 112 46 244 213 1242
346 1823 609 2651 121 381 115 366 679 1739 430 1046 470 1141 532 1265 59
117 416 739 508 884 117 184 400 574 517 711 130 153 533 562 620 630 267 209
699 381 1137 454 201 34 291 42 543 48 439 10 664 -35 995 -201 252 -126 411
-235 655 -447 293 -255 489 -463 742 -789 245 -316 406 -483 628 -655 107 -82
136 -99 230 -131 74 -25 92 -27 250 -27 190 -1 240 9 355 69 172 90 502 410
737 714 204 264 310 385 509 580 344 338 561 504 866 664 205 108 385 170 598
208 116 20 626 17 805 -6 566 -70 1075 -268 1389 -540 86 -74 485 -494 581
-611 147 -181 385 -512 508 -710 163 -263 472 -814 538 -960 57 -128 652
-1568 914 -2215 109 -268 175 -457 279 -792 246 -795 367 -1330 566 -2493 22
-132 44 -250 48 -263 6 -20 47 17 393 365 212 213 412 422 445 463 32 41 144
179 249 305 324 391 433 537 534 716 l31 55 -45 187 c-51 216 -140 532 -191
679 -44 126 -367 953 -474 1213 -43 105 -169 402 -280 660 -619 1440 -701
1590 -1691 3075 -422 634 -597 886 -798 1150 -462 609 -522 693 -596 840 -51
102 -69 158 -89 270 -29 160 -156 1045 -211 1470 -30 234 -71 540 -90 680 -39
291 -48 379 -70 685 -58 805 -214 1450 -520 2140 -190 430 -392 771 -638 1080
-217 273 -414 467 -809 796 -423 353 -664 495 -1086 639 -280 96 -440 134
-892 210 -335 57 -1005 158 -1010 153 -3 -2 -24 -1763 -46 -3912 -23 -2149
-44 -3916 -45 -3925 -2 -10 -32 114 -66 276 l-62 293 33 3730 c18 2052 30
3733 27 3737 -24 26 -837 47 -1146 29z m-2594 -8251 c301 -30 561 -89 924
-211 329 -110 413 -157 715 -399 170 -136 206 -167 199 -174 -3 -3 -81 30
-172 74 -340 163 -579 257 -847 329 -203 55 -599 122 -834 141 -478 38 -1007
-45 -1434 -224 -275 -116 -1000 -454 -1351 -630 -62 -32 -116 -55 -119 -51 -8
7 -5 9 145 119 332 241 568 391 833 529 761 395 1377 553 1941 497z m6549 0
c425 -44 833 -175 1360 -436 370 -183 534 -284 933 -572 180 -130 229 -173
150 -133 -119 60 -699 338 -873 418 -562 260 -730 328 -945 383 -302 78 -499
103 -820 104 -264 1 -356 -8 -665 -60 -457 -77 -765 -176 -1189 -381 -236
-114 -267 -127 -251 -108 24 29 232 200 350 287 218 161 276 190 584 293 324
108 618 175 886 204 119 12 367 13 480 1z"/>
<path d="M6660 10513 c-271 -47 -664 -180 -910 -310 -212 -111 -372 -229 -609
-446 -474 -436 -975 -1126 -1339 -1844 -145 -286 -209 -430 -357 -798 -600
-1491 -606 -1507 -745 -1925 -76 -228 -168 -516 -205 -640 -36 -124 -113 -380
-170 -570 -193 -639 -274 -973 -301 -1238 l-7 -62 89 41 c245 114 573 235 931
343 175 54 757 186 988 226 476 81 1120 89 1732 21 l148 -16 241 -770 242
-770 125 -3 126 -3 89 45 c118 59 191 80 262 73 107 -9 235 -90 306 -193 21
-30 40 -51 42 -45 6 19 -38 152 -71 214 -40 77 -131 160 -199 183 -105 36
-230 19 -332 -46 -33 -21 -48 -26 -51 -17 -15 39 -1104 3811 -1102 3814 2 1
322 -787 712 -1752 389 -966 711 -1754 714 -1753 3 2 632 633 1397 1402 l1390
1400 -14 60 c-22 88 -21 303 1 386 39 148 149 296 264 357 162 87 412 90 576
7 68 -35 173 -143 215 -221 71 -135 96 -350 59 -518 l-16 -70 388 -390 c213
-214 840 -846 1394 -1404 554 -558 1008 -1013 1010 -1010 2 2 323 795 713
1761 389 966 709 1756 711 1755 3 -3 -1093 -3792 -1105 -3820 -7 -16 -10 -16
-42 8 -95 70 -241 89 -352 46 -92 -35 -172 -125 -219 -243 -19 -49 -51 -168
-44 -168 2 0 17 23 35 50 44 68 118 133 198 172 58 29 76 33 147 33 77 0 85
-2 200 -57 l120 -58 127 0 126 0 21 68 c128 418 461 1466 467 1472 5 5 79 15
164 24 647 65 1239 57 1710 -24 117 -20 724 -149 815 -174 298 -79 705 -222
1023 -358 90 -39 165 -68 168 -66 7 7 -22 199 -51 346 -38 187 -116 487 -190
732 -36 118 -110 368 -166 555 -144 486 -324 1039 -433 1332 -25 68 -133 340
-240 605 -521 1294 -533 1322 -696 1643 -204 400 -445 785 -728 1160 -198 263
-312 394 -528 605 -255 249 -430 386 -654 510 -246 137 -643 277 -919 325
-152 27 -152 32 0 -122 286 -289 425 -472 633 -830 126 -218 171 -318 171
-383 -1 -77 -30 -167 -66 -201 -115 -108 -1209 -525 -1669 -638 -358 -87 -347
-86 -880 -85 -413 0 -772 13 -787 28 -3 2 27 154 66 338 111 523 101 469 81
458 -10 -5 -87 -85 -172 -177 -380 -415 -427 -456 -629 -552 -155 -74 -234
-92 -424 -98 -184 -6 -291 11 -430 66 -198 79 -328 180 -563 438 -172 189
-322 344 -322 332 0 -3 38 -185 84 -405 47 -219 83 -400 82 -402 -14 -13 -391
-26 -791 -26 l-480 -1 -140 28 c-320 63 -648 164 -1154 354 -416 156 -702 281
-769 338 -37 31 -72 130 -72 204 0 60 42 154 154 352 214 374 387 601 674 887
l113 112 -38 -1 c-21 -1 -49 -4 -63 -6z m-806 -2121 c51 -48 149 -137 220
-197 498 -427 697 -528 1175 -600 263 -39 467 -48 799 -36 316 12 406 20 622
57 138 24 412 87 513 118 26 8 47 11 47 6 0 -14 -218 -136 -330 -184 -430
-183 -827 -257 -1290 -243 -331 11 -596 47 -752 103 -217 78 -444 238 -620
437 -135 154 -488 601 -488 619 0 17 16 5 104 -80z m9066 71 c0 -16 -279 -372
-445 -568 -203 -239 -443 -410 -690 -490 -259 -84 -857 -119 -1220 -70 -276
37 -585 127 -845 247 -102 47 -280 149 -280 162 0 4 8 5 18 1 47 -18 373 -97
494 -120 224 -41 366 -54 676 -66 334 -12 525 -3 798 36 373 54 597 144 869
349 123 92 347 281 485 409 117 109 140 127 140 110z m-4354 -603 c103 -24
163 -51 299 -134 124 -76 325 -217 325 -228 0 -4 -24 2 -52 14 -67 27 -535
153 -648 174 -104 20 -227 14 -355 -16 -164 -38 -489 -128 -544 -150 -60 -23
-78 -19 -41 11 67 52 324 219 395 256 192 99 402 124 621 73z m-61 -425 c38
-8 101 -30 140 -48 80 -39 315 -193 315 -208 0 -12 -3 -12 -47 5 -42 17 -349
98 -431 115 -107 22 -180 14 -405 -43 -116 -30 -232 -62 -256 -71 -51 -18 -65
-12 -31 13 92 67 236 158 295 188 124 61 277 79 420 49z m4383 -344 c-7 -21
-817 -811 -832 -811 -8 0 -84 18 -168 40 -500 129 -827 180 -1170 180 -205 0
-319 -15 -540 -70 -119 -30 -370 -100 -376 -105 -1 -1 46 -14 105 -30 436
-112 765 -352 1019 -745 118 -183 286 -567 359 -820 71 -246 136 -624 174
-1015 24 -235 28 -305 20 -305 -3 0 -76 270 -163 601 -174 667 -171 657 -372
1065 -222 453 -434 709 -693 839 -98 48 -518 242 -663 305 -102 44 -148 79
-148 113 0 75 277 203 633 292 222 55 388 76 662 82 393 9 619 -19 1040 -127
132 -35 251 -64 265 -67 20 -3 102 52 430 291 223 163 409 296 413 296 5 0 7
-4 5 -9z m-8669 -295 c215 -157 398 -286 405 -286 8 0 81 18 161 40 474 131
741 167 1160 157 357 -8 586 -48 920 -158 237 -79 365 -155 365 -217 0 -42
-32 -66 -171 -126 -322 -139 -673 -308 -749 -359 -219 -149 -417 -424 -632
-882 -155 -329 -150 -313 -313 -939 -85 -324 -157 -591 -160 -594 -12 -13 -13
10 -4 113 45 546 134 1043 238 1333 297 828 669 1232 1301 1409 l133 38 -74
23 c-140 44 -459 121 -572 138 -90 13 -158 15 -347 11 -329 -8 -547 -42 -1033
-163 -121 -30 -226 -53 -233 -52 -17 4 -814 788 -814 800 0 6 6 8 13 5 8 -3
190 -134 406 -291z"/>
<path d="M10020 3375 l0 -1225 313 2 312 3 3 1223 2 1222 -315 0 -315 0 0
-1225z"/>
<path d="M9383 4138 l-253 -253 0 -868 0 -867 250 0 c191 0 252 3 255 13 3 6
4 510 3 1120 l-3 1107 -252 -252z"/>
<path d="M11042 3275 l3 -1120 250 0 250 0 3 865 2 865 -255 255 -255 255 2
-1120z"/>
<path d="M8436 3300 l-246 -250 0 -450 0 -450 250 0 250 0 0 700 c0 385 -2
700 -4 700 -2 0 -114 -113 -250 -250z"/>
<path d="M11982 2855 l3 -700 253 -3 252 -2 0 447 0 448 -255 255 -255 255 2
-700z"/>
<path d="M7480 1923 c1 -10 20 -90 43 -178 l43 -160 2729 0 2729 0 48 165 c26
91 48 171 48 178 0 9 -571 12 -2820 12 -2679 0 -2820 -1 -2820 -17z"/>
<path d="M7685 1373 c110 -56 2495 -1298 2566 -1335 l75 -40 1295 685 c712
376 1308 691 1324 700 28 15 -182 16 -2640 16 l-2670 0 50 -26z"/>
</g>
</svg>
